<svg baseProfile="tiny" xmlns="http://www.w3.org/2000/svg" width="500" height="180.899" viewBox="0 0 500 180.899"><path fill="#ffffff" d="M.809 117.717h498.382v2.729h-498.382z"/><path fill="#ffffff" d="M61.546 74.308l-.026-.245h-1.748l-.037.224c-.107.657-1.052.79-1.821.79h-32.357c-.457 0-.891-.06-1.26-.19l-.561-.6-.036-.224h-1.751l-.022.245-1.077 10.967-.032.297h1.738l.036-.228c1.052-6.199 2.337-7.286 4.646-7.286h11.436v33.162c0 3.579-1.178 4.67-5.045 4.67h-2.757v1.827h21.731v-1.827h-2.761c-3.864 0-5.045-1.091-5.045-4.67v-33.162h11.436c2.312 0 3.598 1.087 4.646 7.286l.039.228h1.735l-.029-.297-1.078-10.967zM93.956 113.63c.17-3.123.331-6.917.331-13.431 0-6.982-2.443-10.233-7.682-10.233-3.238 0-6.334 1.428-10.76 4.021v-21.743h-1.38l-.042.014-7.954 2.741-.178.064v1.562l.228.032 2.875.4c1.184.167 1.44.513 1.44 1.938v32.033c0 3.695-.884 4.698-4.291 4.883l-.253.015v1.792h13.898v-1.807h-.268c-3.277 0-4.076-.735-4.076-3.744v-15.898c3.402-2.137 5.625-3.027 7.618-3.027 2.649 0 5.81 1.354 5.81 7.825 0 9.897-.285 12.75-1.391 13.856-.656.655-1.851.987-3.552.987h-.268v1.807h14.969v-1.807h-.267c-3.933 0-4.69-.735-4.807-2.28z"/><path d="M114.711 92.252c-3.178 0-5.444 2.526-6.586 7.276h12.732c-.764-4.361-3.199-7.276-6.146-7.276z" fill="none"/><path fill="#ffffff" d="M126.585 96.952c-1.322-2.755-3.131-6.519-10.212-6.519-5.117 0-8.325 2.545-10.11 4.684-2.284 2.729-3.595 6.436-3.595 10.171 0 7.988 5.44 14.248 12.384 14.248 5.952 0 10.449-4.468 12.603-7.121l.148-.187-.164-.171-.765-.822-.212-.226-.204.236c-2.583 2.998-5.243 4.336-8.621 4.336-5.065 0-10.297-4.336-10.297-11.589 0-.801.116-1.669.245-2.59h20.348v-1.952l-.082-.077c-.575-.562-.988-1.424-1.466-2.421zm-18.46 2.576c1.142-4.75 3.409-7.276 6.586-7.276 2.947 0 5.381 2.915 6.146 7.276h-12.732zM145.229 168.638l-3.078-43.391c-.172-2.93 1.352-3.058 5.875-3.423l.224-.019.253-.021v-2.249h-14.592l-22.915 47.908-22.934-47.756-.074-.152h-14.975v2.256l.26.014c5.765.371 5.894 1.869 5.513 8.138l-2.306 37.256c-.491 8.876-1.4 9.997-8.096 9.997h-.275v2.363h20.559v-2.354l-.264-.01c-3.259-.143-5.212-.765-6.341-2.012-.832-.92-1.191-2.176-1.092-3.833l2.555-42.396 24.242 50.452.077.152h2.558l.073-.156 23.67-50.44 2.742 42.2c.125 1.631-.267 2.953-1.162 3.912-1.308 1.404-3.705 2.121-7.125 2.121h-.274v2.363h25.272v-2.363h-.275c-6.966.001-7.533.001-8.095-8.557zM198.661 173.757c-1.862.369-2.827.349-3.329-.078-.394-.334-.564-.979-.564-2.104v-32.009l-.303.043-14.072 2.257-.22.041v1.77l.212.041 4.571.842c2.75.536 3.165 1.149 3.165 4.727v20.086c-3.774 3.199-7.639 5.039-10.612 5.039-3.966 0-7.963-2.534-7.963-8.197v-26.669l-.317.067-11.79 2.638-.205.041v1.835l.188.057 3.199.939c1.724.505 2.277 1.379 2.277 3.594v20.886c0 6.407 5.125 9.86 9.947 9.86 3.653 0 8.523-2.324 15.274-7.276v7.375l.338-.107 12.245-3.856.185-.061v-2.215l-.314.057-1.912.377zM223.391 155.84c-4.002-2.481-7.787-4.828-7.787-8.487 0-2.854 2.426-5.008 5.634-5.008 3.836 0 6.838 3.047 7.478 7.589l.036.23h2.172l-.008-.273-.192-8.574-.003-.179-.173-.064c-2.566-1.002-5.28-1.529-7.854-1.529-7.466 0-12.68 4.451-12.68 10.824 0 5.221 3.305 7.335 7.488 10.006 2.22 1.418 4.73 3.027 7.13 5.355 2.6 2.528 3.017 3.709 3.017 5.555 0 3.283-2.961 5.952-6.602 5.952-4.414 0-7.84-3.312-8.936-8.642l-.044-.218h-2.083l.033.294 1.064 10.559.025.236h1.857l.082-.121c.413-.649.916-1.005 1.414-1.005.558 0 1.133.165 1.857.366l.683.189c1.263.449 2.692.664 4.338.664 7.012 0 12.292-4.731 12.292-11.007.001-6.361-5.438-9.736-10.238-12.712z"/><path d="M256.646 141.363c-4.106 0-7.02 3.785-8.465 10.913h16.371c-.954-6.535-4.099-10.913-7.906-10.913z" fill="none"/><path fill="#ffffff" d="M271.653 148.495c-1.698-3.777-4.021-8.951-13.12-8.951-6.579 0-10.699 3.501-13 6.438-2.936 3.751-4.627 8.856-4.627 13.993 0 5.347 1.629 10.297 4.582 13.935 2.967 3.647 6.989 5.65 11.339 5.65 7.656 0 13.452-6.139 16.223-9.801l.135-.184-.148-.168-.988-1.132-.195-.226-.191.238c-3.361 4.167-6.824 6.026-11.233 6.026-6.597 0-13.423-6.032-13.423-16.127 0-1.124.158-2.345.319-3.636l.007-.052h26.316v-2.549l-.074-.078c-.759-.785-1.297-1.987-1.922-3.376zm-23.472 3.781c1.446-7.128 4.359-10.913 8.465-10.913 3.807 0 6.951 4.378 7.905 10.913h-16.37zM324.163 173.757c-1.859.369-2.827.349-3.328-.078-.392-.334-.565-.979-.565-2.104v-32.009l-.302.043-14.07 2.257-.22.041v1.77l.209.041 4.57.842c2.752.536 3.169 1.149 3.169 4.727v20.086c-3.776 3.199-7.642 5.039-10.614 5.039-3.963 0-7.964-2.534-7.964-8.197v-26.669l-.317.067-11.787 2.638-.203.041v1.835l.188.057 3.195.939c1.725.505 2.281 1.379 2.281 3.594v20.886c0 6.407 5.124 9.86 9.947 9.86 3.653 0 8.521-2.324 15.273-7.276v7.375l.334-.107 12.246-3.856.188-.061v-2.215l-.312.057-1.918.377zM404.897 175.457c-4.353 0-4.825-2.73-4.825-3.904.294-5.638.294-11.808.294-17.767 0-9.585-3.238-14.242-9.891-14.242-4.748 0-10.628 3.501-16.855 7.262-1.106-4.48-4.623-7.262-9.297-7.262-3.89 0-10.158 2.684-16.839 7.169v-7.169h-1.763l-.044.015-11.535 3.894-.187.055v1.996l.241.029 3.746.465c1.979.243 2.551.859 2.551 4.457v18.139c0 4.448-1.044 6.864-6.554 6.864h-.271v2.284h20.545v-2.284h-.277c-5.368 0-6.453-.926-6.453-5.475v-20.953c5.707-3.625 9.607-5.254 12.613-5.254 3.149 0 6.839 2.014 6.839 7.698v17.119c0 5.129-1.78 6.864-7.034 6.864h-.273v2.284h20.256v-2.284h-.274c-4.678 0-5.687-.978-5.687-5.475v-21.14c5.438-3.451 9.422-5.067 12.516-5.067 4.601 0 6.933 3.464 6.933 10.286v7.219c0 6.322-.109 11.658-1.461 12.956-.757.73-1.85 1.221-4.704 1.221h-1.146v2.284h22.184v-2.284h-3.3480000000000003z"/><path fill="#ffffff" d="M148.141 12.22v3.744l.273.004c11.63.162 12.725 4.405 12.725 15.59v66.146c0 13.32-1.734 15.595-12.392 16.268l-.259.018v3.727h42.68v-3.744h-.282c-12.662 0-14.803-3.178-14.803-12.722v-36.686h31.795c8.549 0 11.701 3.286 12.029 12.563l.004.263h3.498v-30.24h-3.487l-.015.249c-.517 7.195-3.624 10.551-9.781 10.551h-34.043v-39.114h32.657c10.244 0 13.934 3.552 14.111 13.571l.004.266h3.498v-20.454h-78.212zM257.794 104.461v-57.682h-2.859l-.043.014-22.053 7.691-.18.062v3.154l.217.042 7.976 1.538c4.212.817 5.037 1.545 5.037 8.104v34.342c0 9.006-3.614 12.2-13.81 12.2h-.267v3.79h38.197v-3.79h-.267c-8.152.001-11.948-3.007-11.948-9.465zM250.816 10.401c-4.46 0-8.092 2.856-8.092 6.364 0 3.512 3.631 6.368 8.092 6.368 4.565 0 8.278-2.856 8.278-6.368.001-3.508-3.712-6.364-8.278-6.364z"/><path d="M310.585 52.236c-8.241 0-14.082 6.3-16.931 18.189h32.74c-1.836-10.888-8.151-18.189-15.809-18.189z" fill="none"/><path fill="#ffffff" d="M337.283 64.434c-1.609-3.473-3.439-7.409-6.971-10.509-4.082-3.584-9.659-5.327-17.05-5.327-12.066 0-19.63 6.198-23.847 11.395-5.396 6.658-8.494 15.708-8.494 24.827 0 9.479 2.991 18.255 8.416 24.712 5.428 6.447 12.8 10.004 20.767 10.004 14.045 0 24.691-10.908 29.786-17.406l.144-.183-.154-.165-1.83-2.019-.202-.222-.195.229c-6.256 7.486-12.698 10.824-20.901 10.824-6.407 0-12.73-2.906-17.356-7.976-4.927-5.401-7.636-12.856-7.636-20.99 0-2.021.289-4.204.595-6.524l.032-.265h48.56v-4.246l-.078-.075c-1.419-1.434-2.427-3.588-3.586-6.084zm-43.629 5.991c2.849-11.889 8.689-18.189 16.931-18.189 7.658 0 13.973 7.3 15.81 18.189h-32.741zM373.865 104.041v-100.916h-2.824l-.039.011-21.427 6.959-.182.061v3.329l.234.025 7.535.847c4.469.485 4.948 1.75 4.948 6.521v81.977c0 8.294-3.438 11.097-13.625 11.097h-.265v3.766h38.196v-3.766h-3.113c-6.441-.001-9.438-3.15-9.438-9.911z"/><path d="M431.838 52.236c-12.821 0-21.773 11.311-21.773 27.504 0 16.932 9.846 30.701 21.94 30.701 5.032 0 12.275-3.023 19.895-8.292v-37.472c-6.03-8.714-12.034-12.441-20.062-12.441z" fill="none"/><path fill="#ffffff" d="M471.096 108.173c-2.732.776-4.8.648-6.158-.365-1.231-.917-1.854-2.585-1.854-4.962v-99.721l-.35.105-23.728 6.94-.199.055v3.321l.245.028 5.635.675c5.618.698 6.412 1.579 6.412 4.471v32.453c-4.64-1.806-11.475-3.1-16.451-3.1-10.114 0-19.536 4.002-26.531 11.274-6.959 7.229-10.785 16.906-10.785 27.248 0 8.828 2.848 17.105 8.021 23.301 5.19 6.216 12.139 9.639 19.564 9.639 6.408 0 15.224-3.972 26.182-11.771v11.771h2.377l.044-.018 21.851-8.465.174-.068v-4.099l-.354.102-4.095 1.186zm-19.197-6.024c-7.619 5.269-14.862 8.292-19.895 8.292-12.095 0-21.94-13.77-21.94-30.701 0-16.193 8.952-27.504 21.773-27.504 8.028 0 14.032 3.727 20.062 12.441v37.472z"/></svg>